<svg width="663" height="600" viewBox="0 0 663 600" fill="none" xmlns="http://www.w3.org/2000/svg">
<path d="M178.1 596.535C179.155 596.508 188.985 596.598 199.972 596.675C354.32 598.044 495.383 599.221 495.986 599.166C496.59 599.111 510.016 575.19 579.605 450.082C625.178 368.101 662.537 300.9 662.634 300.703C662.737 300.473 618.911 233.213 565.263 151.154C511.615 69.0945 467.479 1.54549 467.164 1.04582L466.589 0.159098L454.338 1.33959C436.045 3.13959 136.247 31.9531 131.882 32.3536L128.125 32.6647L127.568 33.8822C122.878 44.2891 0.599321 327.675 0.605023 328.131C0.625283 328.484 11.3965 363.626 24.5504 406.214L48.4799 483.664L97.7678 527.842C176.962 598.896 174.097 596.356 175.201 596.477C175.721 596.515 177.046 596.561 178.1 596.535ZM174.293 588.013C172.77 586.642 171.163 584.629 169.318 581.813C167.857 579.505 166.593 577.541 166.534 577.462C166.48 577.35 166.063 577.571 165.593 577.925C164.736 578.54 164.736 578.54 165.316 579.392C166.147 580.7 170.913 584.909 113.602 533.541C105.048 525.891 88.8451 511.384 77.6531 501.331C66.4268 491.272 57.2589 483.01 57.3373 482.951C57.3764 482.922 67.5248 482.741 79.8413 482.585L102.267 482.278L102.965 483.288C103.339 483.866 104.205 485.179 104.869 486.183C105.961 487.878 106.182 488.049 106.883 487.798C107.996 487.359 107.916 486.927 106.328 484.532C105.546 483.371 104.95 482.376 105.024 482.352C105.063 482.322 152.406 481.674 210.197 480.958C267.953 480.237 315.89 479.602 316.66 479.606L318.063 479.593L314.62 482.4C311.177 485.207 311.177 485.207 311.767 485.991C312.322 486.77 312.361 486.74 316.28 483.79C318.436 482.168 320.277 480.536 320.394 480.202C320.579 479.633 323.959 479.514 358.137 479.077L395.714 478.629L397.705 480.906L399.691 483.217L400.416 482.549C401.14 481.88 401.145 481.846 399.833 480.225L398.525 478.569L430.142 478.157C448.737 477.941 461.873 477.936 462.021 478.132C462.198 478.367 488.717 577.197 492.021 589.781C492.362 591.09 492.352 591.159 491.816 590.733C491.497 590.513 490.77 589.71 490.248 588.936C489.044 587.295 488.71 587.178 487.912 588.116C487.369 588.74 487.448 588.927 489.07 590.836L490.815 592.869L487.7 592.85C482.108 592.762 449.92 592.499 434.214 592.352C425.742 592.314 365.497 591.809 300.321 591.239L181.792 590.225L181.05 589.28L180.273 588.33L179.019 589.274C178.348 589.81 177.49 590.18 177.147 590.131C176.803 590.083 175.536 589.134 174.293 588.013ZM479.231 533.935C471.067 503.399 464.419 478.014 464.453 477.529C464.525 476.768 482.634 460.372 557.15 393.469C608.081 347.759 649.815 310.385 649.84 310.459C649.899 310.537 615.009 373.393 572.306 450.174C529.603 526.954 494.635 589.869 494.621 589.973C494.505 590.797 492.381 583.002 479.231 533.935ZM54.1098 480.255C53.9033 479.981 53.7993 479.476 53.8478 479.132C53.9156 478.651 67.1701 449.242 72.5203 437.632C72.8135 437.043 72.8479 437.048 73.4427 437.797C74.1014 438.591 74.1015 438.591 75.0178 438.054L75.9389 437.484L74.9702 436.156C74.031 434.868 74.0112 434.76 74.5532 433.401C74.8412 432.601 93.6462 391.154 116.336 341.289C153.126 260.488 157.714 250.557 158.635 249.986C159.521 249.411 159.58 249.244 159.294 248.538C159.004 247.867 161.031 243.179 176.26 209.705C185.797 188.773 193.922 170.9 194.357 170.05L195.104 168.475L197.123 172.542C199.776 177.819 199.717 177.741 200.751 177.116L201.559 176.599L199.236 171.964C197.291 168.117 196.8 167.383 196.339 167.668C196.035 167.835 195.712 167.895 195.623 167.777C195.505 167.62 221.799 109.332 222.123 109.027C222.284 108.875 288.668 211.152 288.649 211.535C288.65 211.78 288.597 212.403 288.558 212.923C288.477 213.752 288.565 213.869 289.448 213.819C290.365 213.773 293.306 218.25 343.812 295.769C373.177 340.886 397.446 378.176 397.692 378.666C398.174 379.469 398.155 379.607 397.236 381.404C396.703 382.449 396.298 383.338 396.322 383.411C396.386 383.455 396.813 383.656 397.275 383.861C398.104 384.188 398.222 384.099 398.857 382.823L399.546 381.414L430.151 428.423C455.714 467.716 460.647 475.451 460.103 475.585C459.706 475.669 445.31 475.916 428.049 476.111L396.716 476.493L395.767 475.274C394.671 473.858 394.204 473.687 393.549 474.611C393.167 475.082 393.158 475.396 393.414 475.818C393.581 476.121 393.68 476.415 393.601 476.474C393.528 476.499 378.224 476.724 359.595 476.936C340.966 477.147 325.417 477.372 325.024 477.422C324.563 477.462 325.141 476.843 326.679 475.624C332.64 470.86 332.268 471.263 331.585 470.396C331.029 469.617 330.995 469.612 326.953 472.685C324.563 474.485 322.917 475.969 322.982 476.259C323.051 476.514 323.105 476.871 323.111 477.082C323.121 477.259 275.165 478.031 213.372 478.813L103.607 480.226L102.894 479.32C102.245 478.458 102.108 478.438 101.285 478.813C100.608 479.138 100.471 479.364 100.698 479.746C100.958 480.133 100.664 480.231 99.3644 480.258C98.4521 480.27 88.2791 480.377 76.8014 480.546C65.2894 480.71 55.5677 480.846 55.1555 480.788C54.7729 480.769 54.3163 480.529 54.1098 480.255ZM31.5867 407.486C12.8477 346.879 10.5725 339.168 11.0819 338.784C11.5914 338.401 11.4927 338.107 10.2533 336.216C8.46292 333.512 6.85929 328.242 7.62324 327.544C7.90722 327.269 9.73012 326.265 11.6904 325.28C14.7483 323.715 15.1745 323.425 14.9478 322.797C14.4894 321.577 14.1411 321.563 11.7154 322.867C10.3923 323.556 9.31396 324 9.26947 323.818C9.21004 323.495 130.581 42.5726 131.28 41.3402C131.598 40.8246 131.805 41.0989 132.721 43.0493C133.819 45.4457 134.035 45.6513 135.142 45.0018C135.823 44.6425 135.808 44.5002 134.716 42.3148C134.09 41.0358 133.647 39.9576 133.725 39.8986C133.848 39.7757 219.906 106.368 220.319 106.917C220.555 107.23 195.746 162.436 195.109 162.976C194.982 163.133 193.855 161.188 192.629 158.704C190.636 154.71 190.286 154.206 189.659 154.433C189.286 154.59 188.87 154.812 188.747 154.935C188.62 155.092 189.463 157.067 190.58 159.326C191.732 161.59 192.736 163.658 192.869 163.957C193.047 164.437 193.223 164.427 194.012 164.048L194.988 163.59L194.543 164.508C194.299 164.999 185.621 184.055 175.225 206.862C164.862 229.674 156.179 248.52 155.974 248.736C155.739 248.913 154.215 249.784 152.593 250.606C150.931 251.458 149.594 252.25 149.574 252.387C149.55 252.559 149.698 253 149.924 253.382C150.279 254.098 150.387 254.078 152.313 253.088C153.406 252.542 154.337 252.148 154.43 252.231C154.519 252.348 72.7999 432.173 72.5599 432.384C72.5551 432.418 72.0042 431.605 71.345 430.567C70.2037 428.725 70.2037 428.725 69.2923 429.227L68.3809 429.729L69.527 431.536C71.7603 435.073 72.4867 432.654 62.3439 454.901C57.3701 465.829 53.1978 475.048 53.0463 475.377C52.9292 475.71 52.7628 475.897 52.7333 475.858C52.6743 475.779 43.1765 445.02 31.5867 407.486ZM431.806 427.115L400.715 379.337L401.756 377.172C402.342 375.994 402.772 374.934 402.684 374.816C402.59 374.733 402.163 374.533 401.722 374.435C401.084 374.24 400.844 374.452 400.257 375.63C399.866 376.415 399.401 376.98 399.273 376.892C398.979 376.746 293.201 214.278 293.088 213.841C293.038 213.694 293.69 213.541 294.534 213.52C297.727 213.48 299.061 213.212 299.143 212.628C299.303 211.25 298.935 211.128 295.153 211.366C292.117 211.533 291.455 211.51 291.135 211.044C289.212 208.287 223.891 107.665 223.856 107.415C223.846 107.239 226.59 105.909 229.977 104.495C233.364 103.081 286.083 80.705 347.154 54.7425C408.22 28.8143 458.798 7.46714 459.524 7.28918C460.279 7.15045 461.451 7.03539 462.191 6.99967C463.491 6.97269 463.58 7.09032 464.814 9.01555C465.587 10.2452 465.892 11.0588 465.637 11.128C464.99 11.2469 465.001 11.9139 465.722 16.989C466.308 21.0294 466.5 21.6519 467.098 21.6312C467.452 21.6109 467.922 21.5022 468.084 21.3498C468.275 21.2366 468.183 19.4024 467.89 17.2596C467.592 15.1511 467.422 13.3759 467.461 13.3464C467.54 13.2874 508.896 76.4518 559.401 153.725C609.911 230.963 651.184 294.221 651.105 294.28C651.027 294.339 649.53 293.533 647.786 292.482C644.752 290.653 644.619 290.599 644.086 291.154C643.757 291.493 643.523 291.916 643.562 292.131C643.681 292.779 652.269 297.702 652.641 297.299C652.847 297.083 653.402 297.616 654.248 298.821L655.532 300.648L654.475 302.426C653.644 303.85 635.123 320.678 558.438 389.552C506.141 436.506 463.281 474.912 463.143 474.892C463.035 474.912 448.938 453.416 431.806 427.115ZM221.359 104.752C220.991 104.63 136.284 39.1385 135.832 38.6194C135.714 38.4627 138.431 38.075 141.913 37.7251C149.794 36.9795 135.091 38.4099 306.03 21.9773C385.778 14.3383 451.039 8.0899 451.098 8.16824C451.265 8.472 222.322 105.378 222.042 105.128C221.85 104.996 221.526 104.81 221.359 104.752Z" fill="#C9C9C9"/>
<path d="M189.163 583.909L193.042 580.743L192.418 579.955L191.798 579.132L187.934 582.195C185.808 583.856 183.981 585.385 183.922 585.552C183.693 585.94 184.322 586.939 184.837 587.012C185.078 587.046 186.993 585.635 189.163 583.909Z" fill="#C9C9C9"/>
<path d="M163.477 574.3C164.04 573.784 163.912 573.45 161.384 569.521C159.854 567.204 158.521 565.23 158.394 565.142C158.261 565.088 157.815 565.271 157.453 565.605C156.743 566.17 156.767 566.244 157.535 567.508C160.334 572 162.129 574.67 162.472 574.718C162.674 574.782 163.124 574.565 163.477 574.3Z" fill="#C9C9C9"/>
<path d="M200.782 574.794L204.911 571.593L204.149 570.785L203.382 570.012L199.361 573.193C197.147 574.982 195.32 576.511 195.271 576.609C195.252 576.746 195.552 577.104 195.925 577.437C196.618 577.99 196.843 577.881 200.782 574.794Z" fill="#C9C9C9"/>
<path d="M155.273 561.935L156.116 561.424L153.612 557.568C150.08 552.062 150.478 552.468 149.464 553.201L148.637 553.855L151.435 558.102C152.994 560.458 154.298 562.393 154.366 562.403C154.401 562.408 154.817 562.186 155.273 561.935Z" fill="#C9C9C9"/>
<path d="M212.175 565.787C214.344 564.061 216.171 562.532 216.191 562.395C216.21 562.258 215.989 561.841 215.694 561.449C215.148 560.847 214.923 560.955 211.146 563.891C208.942 565.611 207.115 567.14 207.091 567.312C207.067 567.484 207.288 567.9 207.617 568.297C208.124 568.929 208.349 568.82 212.175 565.787Z" fill="#C9C9C9"/>
<path d="M147.177 549.551L148.088 549.049L145.299 544.734C143.745 542.343 142.407 540.403 142.27 540.384C142.167 540.369 141.721 540.552 141.339 540.778C140.692 541.142 140.673 541.279 141.012 541.853C141.46 542.651 146.231 550.049 146.266 550.053C146.3 550.058 146.721 549.802 147.177 549.551Z" fill="#C9C9C9"/>
<path d="M223.96 556.485C227.834 553.353 227.956 553.231 227.386 552.555C227.086 552.197 226.703 551.933 226.527 551.943C226.379 551.993 224.464 553.404 222.338 555.066C218.483 558.06 218.439 558.124 218.961 558.898C219.251 559.324 219.585 559.686 219.722 559.706C219.86 559.725 221.746 558.274 223.96 556.485Z" fill="#C9C9C9"/>
<path d="M139.179 537.216L140.095 536.68L137.183 532.242L134.306 527.808L133.424 528.349C132.66 528.802 132.606 528.935 132.975 529.547C134.003 531.198 137.628 536.787 137.948 537.253C138.204 537.674 138.454 537.639 139.179 537.216Z" fill="#C9C9C9"/>
<path d="M235.612 547.375L239.555 544.253L238.872 543.386L238.223 542.524L234.153 545.803C230.362 548.841 230.078 549.116 230.51 549.773C230.742 550.121 231.115 550.453 231.326 550.448C231.537 550.443 233.482 549.071 235.612 547.375Z" fill="#C9C9C9"/>
<path d="M485.365 584.57C486.154 583.946 486.237 584.098 480.815 577.589L479.384 575.812L477.769 577.335L478.825 578.535C479.4 579.176 480.904 580.929 482.129 582.433C483.357 583.902 484.414 585.102 484.517 585.116C484.62 585.131 485.007 584.87 485.365 584.57Z" fill="#C9C9C9"/>
<path d="M246.81 538.515C249.014 536.794 250.841 535.266 250.865 535.094C250.889 534.922 250.667 534.506 250.338 534.109C249.832 533.477 249.606 533.586 245.781 536.619C243.611 538.345 241.784 539.873 241.765 540.011C241.745 540.148 241.967 540.565 242.262 540.957C242.808 541.559 243.033 541.45 246.81 538.515Z" fill="#C9C9C9"/>
<path d="M475.888 573.287L476.715 572.633L473.363 568.588C470.246 564.857 469.966 564.607 469.31 565.04C468.962 565.271 468.634 565.61 468.605 565.816C468.58 565.988 469.456 567.232 470.562 568.579C471.673 569.891 473.138 571.674 473.831 572.472L475.055 573.975L475.888 573.287Z" fill="#C9C9C9"/>
<path d="M131.151 524.842L132.068 524.305L131.463 523.38C131.143 522.914 129.879 520.95 128.669 519.098C127.459 517.246 126.455 515.669 126.392 515.625C126.328 515.581 125.882 515.763 125.392 516.009L124.485 516.477L127.156 520.636C128.656 522.914 129.945 524.952 130.029 525.104C130.147 525.261 130.652 525.157 131.151 524.842Z" fill="#C9C9C9"/>
<path d="M466.567 561.886C467.321 561.257 467.321 561.257 466.205 559.979C465.601 559.299 464.067 557.506 462.809 555.998L460.533 553.26L459.675 553.875C458.931 554.436 458.907 554.607 459.266 555.043C459.506 555.322 461.006 557.11 462.593 559.015C464.181 560.92 465.538 562.477 465.641 562.491C465.744 562.506 466.131 562.245 466.567 561.886Z" fill="#C9C9C9"/>
<path d="M258.634 529.184C262.626 525.964 262.63 525.929 262.036 525.18C261.445 524.396 261.445 524.396 257.282 527.592C253.162 530.724 253.118 530.788 253.64 531.562C253.93 531.988 254.264 532.351 254.401 532.37C254.539 532.389 256.459 530.944 258.634 529.184Z" fill="#C9C9C9"/>
<path d="M123.246 512.345C124.079 511.902 124.213 512.2 120.592 506.577C118.349 503.108 118.285 503.064 117.516 503.551C117.06 503.802 116.639 504.058 116.565 504.083C116.379 504.162 122.011 512.661 122.286 512.699C122.423 512.719 122.864 512.571 123.246 512.345Z" fill="#C9C9C9"/>
<path d="M457.207 550.515C457.844 549.974 457.701 549.744 454.525 545.934C451.375 542.198 451.094 541.948 450.472 542.386C450.085 542.647 449.752 543.02 449.758 543.231C449.729 543.682 455.78 550.945 456.227 551.008C456.433 551.037 456.849 550.815 457.207 550.515Z" fill="#C9C9C9"/>
<path d="M270.291 520.039L274.2 516.912L272.902 515.188L268.993 518.315C266.858 520.046 265.06 521.614 264.992 521.849C264.944 522.193 265.922 523.206 266.28 523.151C266.348 523.161 268.161 521.735 270.291 520.039Z" fill="#C9C9C9"/>
<path d="M115.15 499.961C116.023 499.488 116.018 499.522 112.85 494.663C110.317 490.768 110.287 490.729 109.386 491.162C108.601 491.507 108.543 491.674 108.819 492.203C109.891 494.036 114.047 500.331 114.219 500.355C114.322 500.369 114.734 500.182 115.15 499.961Z" fill="#C9C9C9"/>
<path d="M447.69 539.262C448.445 538.633 448.445 538.633 446.645 536.488C445.657 535.298 444.129 533.471 443.254 532.472L441.656 530.636L440.833 531.255C440.363 531.609 440.035 531.949 440.133 531.997C440.192 532.076 441.691 533.863 443.422 535.998C445.192 538.104 446.696 539.857 446.764 539.867C446.867 539.881 447.255 539.621 447.69 539.262Z" fill="#C9C9C9"/>
<path d="M281.954 510.86L286.039 507.723L284.672 505.989L280.573 509.229C276.669 512.322 276.468 512.504 276.935 513.165C277.225 513.591 277.53 513.914 277.667 513.934C277.771 513.948 279.715 512.576 281.954 510.86Z" fill="#C9C9C9"/>
<path d="M438.37 527.861C439.006 527.32 438.893 527.129 435.649 523.31C432.503 519.539 432.252 519.328 431.596 519.761C431.209 520.022 430.881 520.361 430.861 520.498C430.813 520.842 437.007 528.334 437.385 528.388C437.556 528.412 438.007 528.195 438.37 527.861Z" fill="#C9C9C9"/>
<path d="M291.456 503.338C292.637 502.419 294.459 500.924 295.561 500.064L297.496 498.515L296.847 497.653C296.493 497.183 296.154 496.855 296.105 496.953C296.021 497.046 294.17 498.502 291.931 500.218L287.885 503.325L288.603 504.197L289.286 505.064L291.456 503.338Z" fill="#C9C9C9"/>
<path d="M428.814 516.637C429.568 516.008 429.568 516.008 427.179 513.08C425.866 511.458 424.338 509.632 423.787 509.064C422.78 508.011 422.78 508.011 421.996 508.601C421.217 509.157 421.212 509.191 424.147 512.722C428.217 517.639 427.903 517.385 428.814 516.637Z" fill="#C9C9C9"/>
<path d="M305.088 492.615L309.114 489.4L308.465 488.538L307.777 487.705L303.702 491.019C299.749 494.209 299.632 494.298 300.123 495.033C300.414 495.459 300.748 495.821 300.851 495.836C300.959 495.816 302.874 494.405 305.088 492.615Z" fill="#C9C9C9"/>
<path d="M419.253 505.448C419.528 505.241 419.748 504.922 419.782 504.682C419.811 504.476 418.399 502.561 416.669 500.425C413.616 496.738 413.493 496.615 412.759 497.107C412.372 497.368 412.004 497.736 411.985 497.874C411.946 498.149 418.234 505.724 418.577 505.773C418.68 505.787 418.979 505.654 419.253 505.448Z" fill="#C9C9C9"/>
<path d="M409.883 493.9C410.515 493.148 410.52 493.114 407.231 489.113L403.942 485.112L403.178 485.81L402.38 486.503L404.115 488.604C405.039 489.75 406.568 491.576 407.497 492.688L409.218 494.647L409.883 493.9Z" fill="#C9C9C9"/>
<path d="M99.0169 475.271C99.3992 475.044 99.6634 474.661 99.5943 474.406C99.4657 473.828 94.5763 466.274 94.2179 466.083C94.0854 466.03 93.6442 466.178 93.1836 466.463C92.3752 466.979 92.3752 466.979 95.1395 471.222C96.6643 473.573 98.0021 475.513 98.1003 475.562C98.1985 475.611 98.6004 475.492 99.0169 475.271Z" fill="#C9C9C9"/>
<path d="M91.1022 462.842L91.9401 462.365L89.3233 458.319C87.887 456.085 86.6228 454.12 86.4705 453.959C86.2146 453.537 84.7096 454.026 84.637 454.541C84.5886 454.884 89.4832 462.649 90.0138 463.109C90.1415 463.197 90.6465 463.093 91.1022 462.842Z" fill="#C9C9C9"/>
<path d="M83.0452 450.429L83.8879 449.917L81.1285 445.64C79.6036 443.289 78.3003 441.354 78.1972 441.339C77.7851 441.281 76.6138 441.887 76.5751 442.162C76.5364 442.436 80.2307 448.281 81.6961 450.309C82.1338 450.931 82.2024 450.94 83.0452 450.429Z" fill="#C9C9C9"/>
<path d="M339.845 465.221L343.911 461.976L343.178 461.207L342.481 460.443L338.538 463.565C336.368 465.291 334.541 466.82 334.492 466.918C334.443 467.016 334.704 467.403 335.072 467.77C335.78 468.465 335.858 468.406 339.845 465.221Z" fill="#C9C9C9"/>
<path d="M391.07 471.074C391.467 470.745 391.721 470.43 391.662 470.352C391.599 470.308 390.104 468.486 388.305 466.341C385.164 462.536 385.07 462.453 384.336 462.945C383.909 463.235 383.547 463.569 383.528 463.707C383.489 463.981 389.633 471.327 390.09 471.566C390.223 471.62 390.673 471.404 391.07 471.074Z" fill="#C9C9C9"/>
<path d="M351.234 456.248C353.428 454.596 355.255 453.067 355.284 452.861C355.313 452.655 355.096 452.204 354.797 451.847C354.29 451.215 354.099 451.328 351.699 453.197C345.713 457.887 345.958 457.641 346.641 458.508C347.197 459.287 347.232 459.292 351.234 456.248Z" fill="#C9C9C9"/>
<path d="M381.554 459.821L382.347 459.162L379.024 455.156C375.907 451.425 375.632 451.141 374.976 451.574C373.78 452.351 373.583 452.008 379.492 459.04L380.721 460.509L381.554 459.821Z" fill="#C9C9C9"/>
<path d="M362.979 446.976L366.849 443.879L369.071 446.503L371.258 449.123L372.904 447.884L370.579 445C368.435 442.316 368.302 442.017 368.777 441.383C369.251 440.75 369.197 440.637 368.451 440.217C367.376 439.645 367.082 439.743 366.637 440.907C366.418 441.471 364.493 443.196 361.872 445.139C357.591 448.423 357.518 448.448 358.068 449.261C358.359 449.687 358.727 450.054 358.864 450.074C359.002 450.093 360.878 448.711 362.979 446.976Z" fill="#C9C9C9"/>
<path d="M365.369 439.467C366.006 438.926 365.927 438.74 363.251 434.615C361.692 432.259 360.354 430.319 360.217 430.3C360.08 430.28 359.658 430.536 359.301 430.836C358.664 431.377 358.743 431.563 361.384 435.683C362.944 438.039 364.281 439.979 364.419 439.999C364.59 440.023 365.007 439.801 365.369 439.467Z" fill="#C9C9C9"/>
<path d="M373.157 432.929C375.845 427.774 375.967 427.406 375.049 426.961C374.656 426.766 374.205 426.737 374.043 426.89C373.852 427.003 372.718 429.085 371.511 431.436C369.384 435.585 369.321 435.786 369.891 436.217C370.21 436.437 370.632 436.671 370.804 436.695C371.01 436.725 372.057 435.016 373.157 432.929Z" fill="#C9C9C9"/>
<path d="M357.303 427.122C357.939 426.581 357.86 426.395 355.219 422.275C353.66 419.919 352.322 417.979 352.185 417.96C352.013 417.936 351.631 418.162 351.239 418.457C350.637 419.003 350.74 419.262 353.357 423.309C354.877 425.695 356.249 427.639 356.386 427.658C356.524 427.678 356.945 427.422 357.303 427.122Z" fill="#C9C9C9"/>
<path d="M380.112 419.374C381.324 416.988 382.36 414.857 382.394 414.617C382.467 414.102 381.19 413.467 380.755 413.826C380.598 413.944 379.429 416.02 378.217 418.406L375.993 422.751L376.842 423.186C377.294 423.46 377.721 423.66 377.756 423.665C377.824 423.675 378.87 421.721 380.112 419.374Z" fill="#C9C9C9"/>
<path d="M349.236 414.777C349.951 414.178 349.897 414.065 347.157 409.896C345.627 407.579 344.255 405.634 344.118 405.615C343.981 405.596 343.564 405.817 343.207 406.117C342.609 406.628 342.742 406.927 345.27 410.856C346.761 413.203 348.099 415.142 348.261 415.235C348.427 415.294 348.873 415.112 349.236 414.777Z" fill="#C9C9C9"/>
<path d="M387.014 405.951L389.419 401.317L388.584 400.779C387.553 400.143 387.597 400.079 385.173 404.851C384.151 406.879 383.188 408.74 383.007 409.029C382.812 409.422 382.984 409.692 383.666 410.068L384.648 410.557L387.014 405.951Z" fill="#C9C9C9"/>
<path d="M341.204 402.437C341.884 401.833 341.864 401.725 339.41 398.017C336.159 393.005 336.193 393.01 335.253 393.718C334.508 394.279 334.567 394.357 337.238 398.516C338.763 400.867 340.101 402.807 340.228 402.895C340.361 402.949 340.807 402.767 341.204 402.437Z" fill="#C9C9C9"/>
<path d="M333.142 390.058C333.857 389.458 333.862 389.424 333.316 388.577C332.071 386.72 328.476 381.17 328.308 380.866C328.225 380.714 327.744 380.891 327.274 381.245L326.441 381.934L329.206 386.176C330.731 388.527 332.068 390.467 332.196 390.555C332.294 390.604 332.745 390.387 333.142 390.058Z" fill="#C9C9C9"/>
<path d="M392.185 395.858C392.611 395.077 393.671 393.02 394.546 391.287L396.184 388.12L395.236 387.636C394.554 387.26 394.24 387.251 394.093 387.545C393.991 387.776 392.896 389.828 391.693 392.146C390.051 395.347 389.611 396.475 389.926 396.73C390.766 397.479 391.472 397.193 392.185 395.858Z" fill="#C9C9C9"/>
<path d="M325.075 377.713C325.869 377.054 326.031 377.393 322.401 371.837L320.099 368.291L318.384 369.52L319.304 370.946C319.821 371.754 321.055 373.679 322.088 375.296C323.121 376.912 324.056 378.235 324.159 378.25C324.257 378.298 324.678 378.043 325.075 377.713Z" fill="#C9C9C9"/>
<path d="M317.165 365.25C317.802 364.71 317.772 364.67 314.487 359.654L312.072 355.916L311.175 356.56L310.318 357.175L312.998 361.266C314.469 363.504 315.915 365.424 316.18 365.532C316.445 365.639 316.886 365.491 317.165 365.25Z" fill="#C9C9C9"/>
<path d="M309.138 352.876C309.74 352.33 309.715 352.257 306.597 347.544C304.064 343.65 304.005 343.571 303.236 344.058C302.775 344.344 302.393 344.57 302.319 344.595C302.025 344.693 307.794 353.212 308.206 353.27C308.447 353.304 308.859 353.117 309.138 352.876Z" fill="#C9C9C9"/>
<path d="M301.071 340.531C301.673 339.986 301.649 339.912 298.565 335.204C296.002 331.271 296.002 331.271 295.13 331.743C294.106 332.299 293.923 331.853 297.312 337.129C298.636 339.172 299.934 340.896 300.14 340.925C300.38 340.959 300.792 340.772 301.071 340.531Z" fill="#C9C9C9"/>
<path d="M292.921 328.28C293.195 328.073 293.411 327.788 293.435 327.616C293.459 327.445 292.239 325.416 290.709 323.099C287.975 318.896 287.94 318.891 287.063 319.398C286.039 319.954 285.906 319.655 289.28 324.789C290.603 326.832 291.867 328.551 292.073 328.58C292.279 328.609 292.647 328.486 292.921 328.28Z" fill="#C9C9C9"/>
<path d="M284.722 315.881C285.138 315.659 285.398 315.311 285.358 315.095C285.319 314.879 284.059 312.881 282.589 310.642C279.942 306.556 279.908 306.551 279.006 306.985L278.07 307.413L278.808 308.638C281.272 312.523 283.697 316.192 283.869 316.216C283.972 316.231 284.345 316.073 284.722 315.881Z" fill="#C9C9C9"/>
<path d="M276.812 303.418C277.62 302.902 277.62 302.902 274.831 298.586C273.307 296.234 271.974 294.26 271.871 294.246C271.768 294.231 271.322 294.413 270.861 294.699L270.023 295.176L272.788 299.418C274.312 301.77 275.65 303.71 275.778 303.798C275.91 303.851 276.386 303.708 276.812 303.418Z" fill="#C9C9C9"/>
<path d="M268.716 291.034L269.554 290.557L267.798 287.857C263.509 281.264 263.956 281.817 263.098 282.187C262.652 282.369 262.324 282.708 262.325 282.953C262.365 283.414 267.397 291.444 267.706 291.487C267.809 291.502 268.255 291.319 268.716 291.034Z" fill="#C9C9C9"/>
<path d="M260.684 278.694L261.521 278.217L258.905 274.17C257.468 271.936 256.17 269.967 256.052 269.81C255.825 269.428 254.272 270.015 254.204 270.496C254.165 270.77 258.695 277.888 259.452 278.731C259.723 279.049 260.076 279.029 260.684 278.694Z" fill="#C9C9C9"/>
<path d="M252.587 266.31L253.435 265.764L250.99 261.987C247.537 256.667 247.901 257.068 246.979 257.394C246.568 257.581 246.181 257.842 246.152 258.048C246.108 258.357 251.46 266.852 251.671 266.846C251.71 266.817 252.127 266.595 252.587 266.31Z" fill="#C9C9C9"/>
<path d="M167.789 245.182C170.166 243.976 172.248 242.869 172.41 242.716C172.91 242.401 172.107 240.887 171.529 241.016C171.239 241.08 169.093 242.144 166.716 243.35C162.443 245.585 162.409 245.58 162.92 246.422C163.21 246.849 163.432 247.265 163.457 247.339C163.452 247.373 165.407 246.423 167.789 245.182Z" fill="#C9C9C9"/>
<path d="M244.589 253.975L245.466 253.468L243.106 249.843C239.589 244.479 239.834 244.723 238.913 245.049C238.501 245.236 238.114 245.497 238.09 245.668C238.056 245.909 243.428 254.512 243.604 254.501C243.639 254.506 244.094 254.255 244.589 253.975Z" fill="#C9C9C9"/>
<path d="M181.408 238.275C183.824 237.04 185.833 235.957 185.847 235.854C185.862 235.751 185.68 235.305 185.394 234.844L184.912 234.041L180.305 236.404C175.968 238.595 175.694 238.801 176.014 239.512C176.236 239.928 176.531 240.32 176.698 240.379C176.864 240.437 178.992 239.511 181.408 238.275Z" fill="#C9C9C9"/>
<path d="M236.493 241.591L237.341 241.045L234.577 236.802C233.052 234.451 231.748 232.516 231.645 232.501C231.233 232.443 230.062 233.049 230.023 233.324C229.999 233.495 231.013 235.249 232.311 237.219C235.828 242.583 235.459 242.216 236.493 241.591Z" fill="#C9C9C9"/>
<path d="M194.365 231.59C196.859 230.296 198.942 229.188 199.02 229.129C199.059 229.1 198.877 228.654 198.592 228.193L198.051 227.311L193.488 229.611C190.964 230.866 188.911 232.013 188.862 232.111C188.843 232.248 189.059 232.699 189.31 233.155C189.832 233.929 189.832 233.929 194.365 231.59Z" fill="#C9C9C9"/>
<path d="M207.395 224.881C209.772 223.675 211.796 222.489 211.864 222.253C211.962 222.057 211.824 221.547 211.632 221.17C211.267 220.523 210.934 220.651 206.666 222.852C204.137 224.141 202.079 225.322 202.06 225.46C202.05 225.774 202.749 227.028 202.955 227.057C203.024 227.067 205.053 226.092 207.395 224.881Z" fill="#C9C9C9"/>
<path d="M228.431 229.211L229.348 228.675L226.549 224.428C225.019 222.111 223.682 220.171 223.579 220.157C223.201 220.103 222 220.67 221.961 220.944C221.927 221.185 225.937 227.529 227.225 229.322C227.456 229.669 227.741 229.64 228.431 229.211Z" fill="#C9C9C9"/>
<path d="M218.348 219.244C219.97 218.422 221.328 217.983 222.701 217.931C225.527 217.769 225.487 217.799 225.427 216.739C225.381 215.822 225.351 215.783 223.708 215.762C222.761 215.768 221.775 215.805 221.525 215.839C221.27 215.909 220.188 214.145 218.933 211.621C217.761 209.25 216.639 207.27 216.399 207.236C216.193 207.207 215.717 207.35 215.374 207.547C214.801 207.887 214.949 208.328 216.888 212.209L219.049 216.506L217.271 217.446C215.198 218.485 215.061 218.711 215.582 219.73C215.937 220.446 216.006 220.455 218.348 219.244Z" fill="#C9C9C9"/>
<path d="M232.986 217.279C240.51 216.834 240.044 216.908 240.175 215.981C240.243 215.5 240.1 215.025 239.869 214.922C239.673 214.824 237.323 214.843 234.709 215C230.324 215.293 229.927 215.377 229.722 216.084C229.591 216.521 229.592 217.011 229.744 217.173C229.862 217.329 231.329 217.361 232.986 217.279Z" fill="#C9C9C9"/>
<path d="M250.192 216.237C252.561 216.08 254.625 215.846 254.743 215.757C254.865 215.635 254.933 215.154 254.893 214.693L254.808 213.805L249.609 214.158C246.75 214.316 244.381 214.472 244.347 214.467C244.307 214.497 244.318 214.919 244.343 215.483C244.424 216.65 244.527 216.664 250.192 216.237Z" fill="#C9C9C9"/>
<path d="M262.836 215.497C264.567 215.391 266.867 215.225 267.892 215.159C269.658 215.058 269.736 214.999 269.651 214.111C269.587 213.576 269.512 213.111 269.488 213.037C269.37 212.88 259.433 213.546 259.198 213.723C258.928 213.896 259.162 215.715 259.442 215.719C259.55 215.699 261.07 215.598 262.836 215.497Z" fill="#C9C9C9"/>
<path d="M279.688 214.475C284.176 214.197 284.21 214.201 284.346 213.24C284.515 212.038 284.515 212.038 278.58 212.392C273.921 212.646 273.887 212.641 273.864 213.549C273.837 214.736 274.244 214.828 279.688 214.475Z" fill="#C9C9C9"/>
<path d="M214.043 203.577C214.689 203.213 214.591 202.918 212.464 198.626C211.238 196.141 210.14 193.99 210.047 193.907C209.954 193.824 209.473 194.001 209.018 194.252L208.209 194.769L210.454 199.218C211.65 201.664 212.792 203.751 212.993 203.814C213.155 203.907 213.626 203.798 214.043 203.577Z" fill="#C9C9C9"/>
<path d="M207.495 190.395C208.142 190.031 208.043 189.737 205.917 185.444C204.691 182.96 203.593 180.809 203.465 180.721C203.372 180.638 202.896 180.781 202.441 181.032L201.603 181.509L203.843 185.993C205.103 188.482 206.245 190.569 206.446 190.633C206.608 190.726 207.079 190.617 207.495 190.395Z" fill="#C9C9C9"/>
<path d="M66.8872 425.665L67.7542 424.982L65.9982 422.283C65.0194 420.779 63.7504 418.849 63.1797 417.928L62.078 416.301L60.3142 417.384L62.872 421.352C64.3179 423.517 65.6068 425.555 65.7446 425.82C65.9956 426.275 66.2114 426.236 66.8872 425.665Z" fill="#C9C9C9"/>
<path d="M59.0755 413.251C59.9085 412.808 60.0416 413.107 56.4508 407.523C54.5521 404.593 54.0655 404.069 53.5116 404.271C53.1439 404.395 52.7225 404.651 52.5953 404.808C52.3408 405.122 57.6634 413.578 58.1099 413.641C58.2473 413.66 58.6589 413.473 59.0755 413.251Z" fill="#C9C9C9"/>
<path d="M51.0282 400.769C51.6649 400.228 51.5517 400.037 48.9102 395.917C46.554 392.258 46.038 391.695 45.4841 391.897C45.0773 392.05 44.695 392.276 44.5334 392.429C44.3181 392.713 49.6654 401.243 50.1119 401.305C50.2493 401.325 50.6658 401.103 51.0282 400.769Z" fill="#C9C9C9"/>
<path d="M42.9616 388.424C43.6766 387.825 43.6225 387.712 41.0598 383.778C39.5891 381.539 38.2514 379.6 38.0991 379.438C37.9076 379.306 37.4025 379.41 37.0106 379.705C36.3004 380.27 36.3202 380.378 39.0304 384.508C40.5209 386.855 41.893 388.799 42.0206 388.887C42.1532 388.941 42.5992 388.759 42.9616 388.424Z" fill="#C9C9C9"/>
<path d="M34.9341 376.05C35.6491 375.45 35.6539 375.416 35.0736 374.564C34.7539 374.098 33.5439 372.246 32.3978 370.439C31.2173 368.626 30.1011 367.103 29.9046 367.005C29.7034 366.942 29.2622 367.09 28.9047 367.39C28.3072 367.901 28.4402 368.2 30.998 372.168C32.5228 374.519 33.8606 376.459 33.9883 376.547C34.0865 376.596 34.5373 376.379 34.9341 376.05Z" fill="#C9C9C9"/>
<path d="M26.8673 363.705C27.6608 363.046 27.848 363.458 24.3456 357.991C22.255 354.684 21.6262 354.175 20.7844 355.177C20.4418 355.619 20.8455 356.482 23.0049 359.798C24.4412 362.032 25.7789 363.972 25.9066 364.06C26.0638 364.187 26.4706 364.034 26.8673 363.705Z" fill="#C9C9C9"/>
<path d="M18.7616 351.39C19.6334 350.672 19.6581 350.745 16.4953 345.852C14.0163 342.07 13.8639 341.908 13.2025 342.375C12.7763 342.666 12.4483 343.005 12.4289 343.142C12.395 343.382 17.7766 351.916 17.9827 351.945C18.0514 351.955 18.404 351.69 18.7616 351.39Z" fill="#C9C9C9"/>
<path d="M23.7703 319.102C26.1128 317.891 28.0677 316.696 28.1065 316.421C28.1404 316.18 27.9533 315.769 27.7124 315.49C27.3488 315.088 27.0691 315.084 26.2457 315.458C25.045 316.024 18.929 319.155 18.4636 319.475C18.0422 319.731 18.5698 321.206 19.1241 321.249C19.3645 321.283 21.4622 320.318 23.7703 319.102Z" fill="#C9C9C9"/>
<path d="M36.7913 312.461C39.2072 311.226 41.226 310.074 41.2551 309.868C41.2794 309.696 41.1362 309.221 40.9147 308.804C40.5506 308.158 40.2956 308.227 36.0713 310.363C33.6161 311.628 31.5383 312.702 31.4599 312.761C31.2345 312.869 31.9245 314.682 32.1697 314.682C32.2727 314.696 34.3753 313.697 36.7913 312.461Z" fill="#C9C9C9"/>
<path d="M49.9442 305.629C52.321 304.423 54.3351 303.305 54.4231 303.178C54.4769 303.045 54.3337 302.57 54.0435 302.144C53.5222 301.37 53.4879 301.365 48.9108 303.767C44.4857 306.085 44.329 306.203 44.7081 306.992C44.9296 307.409 45.2245 307.801 45.3963 307.825C45.5337 307.844 47.5626 306.869 49.9442 305.629Z" fill="#C9C9C9"/>
<path d="M62.8182 299.037C65.1606 297.826 67.2776 296.724 67.4344 296.606C67.5911 296.488 67.5216 295.987 67.2362 295.527L66.7246 294.684L62.0837 297.042C58.0407 299.134 57.4969 299.513 57.7285 300.106C57.8861 300.479 58.1077 300.895 58.2305 301.017C58.3534 301.14 60.4414 300.243 62.8182 299.037Z" fill="#C9C9C9"/>
<path d="M75.991 292.313C81.0925 289.669 81.0141 289.728 80.3844 288.729C79.9022 287.925 79.9022 287.925 75.4476 290.204C72.9972 291.435 70.9146 292.543 70.8018 292.597C70.5275 292.803 71.2611 294.308 71.6781 294.332C71.8498 294.356 73.8004 293.44 75.991 292.313Z" fill="#C9C9C9"/>
<path d="M89.3941 285.445C91.8542 284.146 93.932 283.073 93.9712 283.043C94.0447 283.018 93.8281 282.568 93.5819 282.078L93.0457 281.161L88.591 283.441C86.1014 284.701 84.0237 285.774 83.9453 285.833C83.7198 285.941 84.4098 287.755 84.655 287.754C84.758 287.769 86.8998 286.74 89.3941 285.445Z" fill="#C9C9C9"/>
<path d="M102.43 278.701C104.806 277.495 106.82 276.378 106.908 276.25C106.962 276.118 106.819 275.642 106.529 275.216C106.008 274.442 105.973 274.437 101.396 276.839C96.9367 279.153 96.78 279.271 97.1982 280.03C97.4149 280.481 97.7098 280.873 97.8816 280.897C98.019 280.917 100.048 279.942 102.43 278.701Z" fill="#C9C9C9"/>
<path d="M115.534 271.967C118.097 270.682 120.189 269.506 120.209 269.369C120.228 269.231 120.006 268.815 119.711 268.423C119.166 267.821 118.911 267.89 114.569 270.115L109.962 272.478L110.391 273.414C110.637 273.904 110.858 274.32 110.893 274.325C110.893 274.325 113.005 273.257 115.534 271.967Z" fill="#C9C9C9"/>
<path d="M128.476 265.385C133.617 262.712 133.499 262.801 132.909 261.772L132.432 260.934L127.972 263.248C125.517 264.513 123.4 265.615 123.282 265.704C123.013 265.876 123.953 267.409 124.301 267.423C124.404 267.438 126.286 266.512 128.476 265.385Z" fill="#C9C9C9"/>
<path d="M141.879 258.518C144.34 257.218 146.417 256.145 146.456 256.116C146.53 256.091 146.348 255.645 146.067 255.15L145.565 254.239L141.003 256.538C138.479 257.793 136.426 258.94 136.377 259.038C136.357 259.176 136.574 259.626 136.83 260.048C137.351 260.822 137.386 260.827 141.879 258.518Z" fill="#C9C9C9"/>
<path d="M187.651 150.787L188.479 150.379L186.412 146.164C183.655 140.627 183.802 140.823 182.768 141.448L181.926 141.96L184.185 146.551C185.441 149.075 186.514 151.152 186.612 151.201C186.715 151.216 187.195 151.038 187.651 150.787Z" fill="#C9C9C9"/>
<path d="M181.074 137.567L181.937 137.163L179.834 132.944C177.048 127.367 177.171 127.49 176.191 128.227L175.408 128.817L177.633 133.404C178.888 135.928 179.966 137.971 180.069 137.985C180.172 138 180.618 137.818 181.074 137.567Z" fill="#C9C9C9"/>
<path d="M174.497 124.346C175.3 123.864 175.271 123.824 173.031 119.341C171.805 116.856 170.659 114.803 170.531 114.715C170.364 114.657 169.893 114.766 169.511 114.992C168.791 115.381 168.83 115.597 171.065 120.115C172.316 122.672 173.419 124.789 173.522 124.804C173.625 124.818 174.036 124.631 174.497 124.346Z" fill="#C9C9C9"/>
<path d="M167.782 111.106L168.664 110.565L166.488 106.125C165.258 103.675 164.145 101.627 163.983 101.534C163.816 101.475 163.38 101.589 162.964 101.81C162.13 102.253 162.135 102.219 165.114 108.173L166.866 111.642L167.782 111.106Z" fill="#C9C9C9"/>
<path d="M161.196 97.9538L162.112 97.4175L160.256 93.6883C157.489 87.9746 157.573 88.1265 156.651 88.452C156.205 88.6342 155.818 88.8949 155.794 89.0666C155.765 89.2727 159.556 97.1622 160.26 98.3822C160.289 98.4214 160.735 98.2391 161.196 97.9538Z" fill="#C9C9C9"/>
<path d="M154.648 84.7722L155.564 84.2359L153.708 80.5068C150.941 74.793 151.025 74.945 150.103 75.2704C149.657 75.4527 149.27 75.7134 149.246 75.8851C149.217 76.0912 153.274 84.5786 153.712 85.2007C153.741 85.2398 154.188 85.0576 154.648 84.7722Z" fill="#C9C9C9"/>
<path d="M148.071 71.5516L148.982 71.0496L146.723 66.458C144.492 61.9057 143.908 61.3329 142.983 62.4284C142.684 62.8066 143.088 63.9143 144.836 67.418C146.067 69.8681 147.105 71.9408 147.135 71.98C147.164 72.0192 147.576 71.832 148.071 71.5516Z" fill="#C9C9C9"/>
<path d="M141.754 58.2273C142.396 57.8975 142.302 57.5691 140.175 53.2765C138.915 50.7872 137.739 48.6951 137.533 48.666C137.327 48.637 136.851 48.7801 136.508 48.9769C135.935 49.3164 136.112 49.7968 138.087 53.9278C139.313 56.4122 140.489 58.5043 140.69 58.5677C140.862 58.592 141.337 58.4488 141.754 58.2273Z" fill="#C9C9C9"/>
<path d="M407.143 366.793C408.355 364.407 409.391 362.277 409.42 362.071C409.488 361.59 408.108 360.94 407.746 361.274C407.427 361.545 402.95 370.195 403.068 370.352C403.132 370.396 403.559 370.596 404.02 370.802C404.85 371.129 404.928 371.07 407.143 366.793Z" fill="#C9C9C9"/>
<path d="M413.898 353.665C415.11 351.279 416.151 349.115 416.18 348.908C416.228 348.565 414.667 347.715 414.422 347.96C413.972 348.422 409.896 356.954 410.044 357.15C410.162 357.307 410.545 357.571 410.942 357.732C411.566 358.03 411.825 357.681 413.898 353.665Z" fill="#C9C9C9"/>
<path d="M420.707 340.405C421.977 337.852 422.974 335.751 422.915 335.673C422.856 335.594 422.478 335.296 422.061 335.027C421.52 334.635 421.314 334.606 421.129 334.93C417.521 341.882 416.578 343.851 416.789 344.091C416.907 344.248 417.29 344.512 417.688 344.673C418.311 344.971 418.571 344.622 420.707 340.405Z" fill="#C9C9C9"/>
<path d="M427.174 327.832C429.955 322.515 429.955 322.515 429.047 322.001C428.624 321.767 428.148 321.665 428.026 321.787C427.908 321.876 426.779 323.923 425.528 326.339C423.788 329.736 423.358 330.796 423.667 331.085C424.763 332.01 425.208 331.583 427.174 327.832Z" fill="#C9C9C9"/>
<path d="M434.173 314.213C435.385 311.827 436.421 309.696 436.45 309.49C436.518 309.009 435.134 308.394 434.742 308.689C434.62 308.812 433.49 310.859 432.273 313.279C430.533 316.677 430.138 317.742 430.413 318.026C431.508 318.951 431.92 318.518 434.173 314.213Z" fill="#C9C9C9"/>
<path d="M440.889 301.114C442.141 298.699 443.177 296.568 443.206 296.362C443.249 296.053 441.653 295.198 441.414 295.409C441.203 295.66 436.79 304.599 436.844 304.712C436.908 304.756 437.335 304.956 437.796 305.162C438.626 305.489 438.704 305.43 440.889 301.114Z" fill="#C9C9C9"/>
<path d="M447.742 287.79C449.643 283.995 449.98 283.097 449.636 282.803C448.541 281.878 448.169 282.281 445.852 286.788C443.726 290.937 443.604 291.305 444.1 291.76C444.375 292.044 444.792 292.313 444.998 292.342C445.239 292.376 446.471 290.343 447.742 287.79Z" fill="#C9C9C9"/>
<path d="M454.448 274.76C455.753 272.212 456.75 270.111 456.691 270.033C456.632 269.954 456.254 269.656 455.837 269.387C455.296 268.995 455.09 268.966 454.905 269.29C451.849 275.059 450.354 278.211 450.531 278.446C450.654 278.568 451.071 278.837 451.43 279.028C452.024 279.287 452.327 278.874 454.448 274.76Z" fill="#C9C9C9"/>
<path d="M461.257 261.5C462.562 258.952 463.442 256.939 463.294 256.743C463.142 256.581 462.724 256.313 462.391 256.195C461.856 256.015 461.411 256.688 459.397 260.537C457.568 264.062 457.134 265.156 457.443 265.445C458.539 266.37 458.945 265.972 461.257 261.5Z" fill="#C9C9C9"/>
<path d="M640.295 289.219C640.882 288.286 641.226 288.58 635.348 285.055C632.284 283.187 631.921 283.03 631.436 283.487C631.186 283.767 630.917 284.185 630.884 284.425C630.84 284.734 638.938 289.903 639.625 290C639.728 290.015 640.021 289.671 640.295 289.219Z" fill="#C9C9C9"/>
<path d="M627.602 281.616C627.797 281.223 627.826 280.772 627.674 280.61C627.56 280.419 625.562 279.192 623.298 277.857C619.866 275.867 619.075 275.511 618.743 275.884C617.857 276.95 618.255 277.357 622.36 279.792C624.624 281.126 626.641 282.216 626.882 282.25C627.088 282.279 627.441 282.014 627.602 281.616Z" fill="#C9C9C9"/>
<path d="M614.859 274.111C615.168 273.664 615.339 273.198 615.275 273.154C615.186 273.036 608.636 269.066 606.725 267.956C606.495 267.854 606.132 268.188 605.849 268.708L605.36 269.69L609.436 272.086C611.699 273.421 613.742 274.584 613.933 274.716C614.159 274.853 614.586 274.563 614.859 274.111Z" fill="#C9C9C9"/>
<path d="M467.969 248.435C469.225 245.986 470.158 243.841 470.005 243.679C469.887 243.522 469.47 243.253 469.112 243.063C468.518 242.804 468.209 243.251 466.117 247.404C464.236 251.062 463.845 252.092 464.194 252.352C465.319 253.316 465.691 252.913 467.969 248.435Z" fill="#C9C9C9"/>
<path d="M602.181 266.65C602.455 266.199 602.69 265.776 602.694 265.742C602.704 265.673 600.745 264.416 598.324 262.954C594.091 260.431 593.895 260.334 593.361 260.889C593.033 261.228 592.798 261.65 592.843 261.832C592.907 262.121 598.142 265.486 601.167 267.138C601.491 267.323 601.829 267.161 602.181 266.65Z" fill="#C9C9C9"/>
<path d="M589.571 258.954C590.065 258.183 590.045 258.075 589.078 257.483C588.493 257.156 586.495 255.928 584.624 254.789C581.56 252.921 581.196 252.765 580.712 253.222C580.462 253.502 580.193 253.919 580.159 254.16C580.13 254.366 581.815 255.584 583.946 256.865C589.18 259.985 588.979 259.921 589.571 258.954Z" fill="#C9C9C9"/>
<path d="M474.733 235.239C476.034 232.725 477.035 230.59 476.981 230.477C476.922 230.399 476.495 230.198 476.034 229.993C475.234 229.705 475.145 229.833 472.838 234.271C471.568 236.824 470.531 238.955 470.59 239.033C470.649 239.111 471.077 239.312 471.538 239.517C472.368 239.844 472.451 239.751 474.733 235.239Z" fill="#C9C9C9"/>
<path d="M576.995 251.262C577.445 250.555 577.356 250.438 572.922 247.851C569.205 245.646 568.351 245.246 568.018 245.619C567.132 246.685 567.53 247.091 571.635 249.526C573.899 250.861 575.917 251.951 576.123 251.98C576.329 252.009 576.726 251.68 576.995 251.262Z" fill="#C9C9C9"/>
<path d="M309.297 212.658C313.544 212.346 313.726 212.302 313.734 211.497C313.763 211.046 313.688 210.58 313.6 210.463C313.545 210.35 311.157 210.399 308.337 210.527C303.501 210.791 303.211 210.855 303.286 211.566C303.336 211.958 303.376 212.419 303.352 212.591C303.298 212.969 304.554 213.006 309.297 212.658Z" fill="#C9C9C9"/>
<path d="M320.955 211.955C328.704 211.401 328.381 211.46 328.502 210.602C328.565 210.155 328.49 209.689 328.367 209.567C328.082 209.352 318.553 209.865 318.166 210.126C317.886 210.366 318.061 212.107 318.41 212.121C318.552 212.106 319.68 212.055 320.955 211.955Z" fill="#C9C9C9"/>
<path d="M564.248 243.792C564.458 243.296 564.585 242.893 564.526 242.815C564.462 242.771 557.361 238.478 556.001 237.691C555.77 237.588 555.408 237.922 555.124 238.443L554.636 239.425L558.967 241.997C561.358 243.419 563.435 244.588 563.607 244.612C563.778 244.636 564.077 244.258 564.248 243.792Z" fill="#C9C9C9"/>
<path d="M338.523 210.823C340.892 210.667 342.957 210.432 343.113 210.314C343.236 210.191 343.338 209.715 343.298 209.255L343.203 208.436L338.044 208.759L332.923 209.053L332.783 210.049C332.613 211.251 332.751 211.271 338.523 210.823Z" fill="#C9C9C9"/>
<path d="M351.167 210.083C352.899 209.977 355.199 209.811 356.224 209.745C358.024 209.649 358.102 209.59 358.017 208.702C357.952 208.168 357.878 207.702 357.849 207.663C357.765 207.511 347.769 208.098 347.608 208.251C347.373 208.428 347.528 210.306 347.773 210.306C347.881 210.286 349.402 210.185 351.167 210.083Z" fill="#C9C9C9"/>
<path d="M551.491 236.39C551.765 235.938 551.965 235.511 551.975 235.442C552.023 235.099 543.195 230.142 542.886 230.344C542.725 230.496 542.456 230.913 542.338 231.247C542.192 231.787 542.821 232.296 546.047 234.257C548.178 235.538 550.182 236.731 550.472 236.912C550.894 237.146 551.158 237.008 551.491 236.39Z" fill="#C9C9C9"/>
<path d="M481.479 222.179C483.454 218.36 483.786 217.496 483.412 217.163C482.317 216.238 481.95 216.607 479.584 221.212C478.284 223.726 477.282 225.861 477.336 225.974C477.395 226.052 477.822 226.252 478.284 226.458C479.079 226.78 479.201 226.657 481.479 222.179Z" fill="#C9C9C9"/>
<path d="M368.299 209.065C372.581 208.758 372.723 208.743 372.736 207.904C372.735 207.414 372.661 206.948 372.602 206.87C372.513 206.752 370.159 206.806 367.373 206.938C362.218 207.228 361.963 207.297 362.26 208.67C362.438 209.395 362.958 209.433 368.299 209.065Z" fill="#C9C9C9"/>
<path d="M382.434 208.185C385.048 208.029 387.24 207.882 387.28 207.853C387.486 207.882 387.523 206.626 387.34 206.18C387.148 205.803 386.069 205.756 382.033 206.062C379.242 206.23 376.942 206.396 376.873 206.386C376.633 206.352 377.093 208.308 377.358 208.416C377.524 208.474 379.815 208.377 382.434 208.185Z" fill="#C9C9C9"/>
<path d="M538.866 228.796C539.101 228.374 539.198 227.932 539.08 227.776C538.701 227.232 530.506 222.504 530.266 222.716C530.114 222.799 529.845 223.217 529.689 223.58C529.391 224.204 529.764 224.536 533.639 226.869C535.996 228.287 538.073 229.455 538.21 229.474C538.347 229.494 538.671 229.189 538.866 228.796Z" fill="#C9C9C9"/>
<path d="M397.628 207.245C401.871 206.967 402.052 206.923 402.061 206.118C402.094 205.632 402.054 205.172 401.961 205.088C401.843 204.932 391.945 205.323 391.641 205.49C391.563 205.549 391.573 205.971 391.638 206.506C391.758 207.643 391.895 207.663 397.628 207.245Z" fill="#C9C9C9"/>
<path d="M410.169 206.49C411.901 206.384 414.201 206.218 415.226 206.152C416.992 206.051 417.07 205.992 416.985 205.104C416.92 204.57 416.846 204.104 416.821 204.03C416.733 203.913 406.767 204.54 406.531 204.717C406.262 204.889 406.461 206.703 406.775 206.713C406.883 206.693 408.404 206.592 410.169 206.49Z" fill="#C9C9C9"/>
<path d="M526.217 221.129L526.73 220.221L522.198 217.586C519.743 216.119 517.626 214.98 517.548 215.039C517.47 215.098 517.269 215.525 517.064 215.987C516.742 216.782 516.894 216.943 520.233 218.85C522.143 219.96 524.181 221.158 524.731 221.48C525.669 222.033 525.742 222.008 526.217 221.129Z" fill="#C9C9C9"/>
<path d="M427.193 205.492C431.22 205.254 431.548 205.16 431.65 204.439C431.713 203.993 431.604 203.522 431.418 203.356C431.226 203.224 428.847 203.204 426.159 203.385L421.25 203.674L421.114 204.635C420.945 205.837 421.288 205.886 427.193 205.492Z" fill="#C9C9C9"/>
<path d="M488.229 209.086C490.121 205.36 490.502 204.397 490.158 204.104C489.033 203.14 488.626 203.538 486.344 208.05C485.122 210.504 484.189 212.649 484.307 212.806C484.459 212.968 484.847 213.197 485.206 213.388C485.8 213.647 486.108 213.2 488.229 209.086Z" fill="#C9C9C9"/>
<path d="M441.363 204.617C443.942 204.455 446.144 204.24 446.262 204.152C446.531 203.98 446.332 202.165 446.023 202.122C445.429 202.108 436.057 202.749 435.939 202.837C435.587 203.103 435.894 204.897 436.277 204.916C436.487 204.911 438.783 204.779 441.363 204.617Z" fill="#C9C9C9"/>
<path d="M513.523 213.526C513.733 213.031 513.86 212.628 513.801 212.55C513.737 212.506 506.799 208.305 505.306 207.465C505.115 207.333 504.747 207.701 504.464 208.222L503.945 209.164L508.242 211.731C510.633 213.154 512.71 214.322 512.882 214.347C513.054 214.371 513.352 213.993 513.523 213.526Z" fill="#C9C9C9"/>
<path d="M456.631 203.652C460.947 203.349 461.054 203.33 461.068 202.491C461.067 202 460.992 201.535 460.933 201.456C460.85 201.304 450.873 201.755 450.604 201.927C450.526 201.986 450.497 202.437 450.567 202.937C450.691 204.041 450.897 204.07 456.631 203.652Z" fill="#C9C9C9"/>
<path d="M470.054 202.847C476.062 202.468 475.7 202.557 475.835 201.595C475.898 201.148 475.858 200.688 475.701 200.56C475.573 200.472 473.572 200.505 471.242 200.632C464.92 201.002 465.357 200.889 465.349 201.938C465.345 202.463 465.458 202.899 465.655 202.997C465.822 203.056 467.828 202.988 470.054 202.847Z" fill="#C9C9C9"/>
<path d="M500.766 206.124C501.045 205.638 501.211 205.206 501.186 205.133C501.034 204.971 493.771 200.585 492.986 200.194C492.461 199.945 492.196 200.083 491.795 200.692C491.208 201.625 491.08 201.537 495.126 203.893C496.644 204.808 498.421 205.864 499.099 206.275C500.297 206.969 500.297 206.969 500.766 206.124Z" fill="#C9C9C9"/>
<path d="M486.2 201.865C490.619 201.577 491.065 201.395 490.455 200.013C490.238 199.562 489.438 199.519 485.309 199.743C482.621 199.924 480.321 200.091 480.208 200.145C480.061 200.194 479.998 200.641 480.033 201.136C480.055 202.225 480.398 202.273 486.2 201.865Z" fill="#C9C9C9"/>
<path d="M491.509 197.009C491.92 196.822 491.879 195.87 491.362 191.84C490.696 186.877 490.4 186.24 489.165 186.802C488.714 187.018 488.735 187.862 489.263 192.069C489.91 197.169 490.127 197.62 491.509 197.009Z" fill="#C9C9C9"/>
<path d="M489.643 182.421C489.942 182.288 489.95 181.238 489.567 178.487C489.299 176.418 488.99 174.133 488.886 173.383C488.751 172.103 488.624 172.015 487.77 172.105C487.236 172.17 486.77 172.244 486.731 172.273C486.613 172.362 487.046 175.996 487.662 180.075C488.024 182.473 488.442 182.987 489.643 182.421Z" fill="#C9C9C9"/>
<path d="M487.581 167.735C487.993 167.548 487.952 166.596 487.434 162.566C486.768 157.603 486.472 156.966 485.237 157.528C484.787 157.744 484.808 158.588 485.335 162.795C485.982 167.895 486.159 168.375 487.581 167.735Z" fill="#C9C9C9"/>
<path d="M485.715 153.147C486.053 152.984 486.047 152.038 485.649 149.39C485.366 147.424 485.063 145.104 484.968 144.285C484.823 142.829 484.73 142.746 483.842 142.831C483.308 142.896 482.842 142.97 482.764 143.029C482.685 143.088 482.805 144.226 482.999 145.584C483.197 146.908 483.506 149.193 483.724 150.625C484.096 153.199 484.48 153.708 485.715 153.147Z" fill="#C9C9C9"/>
<path d="M483.653 138.461C484.065 138.274 484.024 137.322 483.472 133.287C482.84 128.574 482.771 128.32 481.967 128.311C481.516 128.283 481.05 128.357 480.971 128.416C480.854 128.505 481.054 130.809 481.402 133.556C482.054 138.621 482.232 139.101 483.653 138.461Z" fill="#C9C9C9"/>
<path d="M481.787 123.873C482.086 123.74 482.04 122.332 481.533 118.723C481.15 115.972 480.807 113.683 480.748 113.604C480.571 113.369 478.786 113.608 478.748 113.883C478.767 113.99 479.041 116.271 479.404 118.914C479.946 122.773 480.188 123.787 480.693 123.929C481.066 124.016 481.523 124.011 481.787 123.873Z" fill="#C9C9C9"/>
<path d="M479.936 109.182C480.191 108.867 479.144 99.6482 478.76 99.1389C478.5 98.7519 476.999 98.9607 476.931 99.4415C476.902 99.6475 477.142 101.923 477.509 104.532C478.057 108.847 478.17 109.283 478.892 109.385C479.338 109.448 479.804 109.373 479.936 109.182Z" fill="#C9C9C9"/>
<path d="M477.35 94.737C477.928 94.6084 478.315 94.3478 478.28 94.0977C478.241 93.8819 477.903 91.5577 477.535 88.9491C476.87 84.2319 476.874 84.1976 475.952 84.2778C475.452 84.3474 474.986 84.4219 474.913 84.4466C474.795 84.5351 476.099 94.6658 476.251 94.8274C476.315 94.8714 476.81 94.8361 477.35 94.737Z" fill="#C9C9C9"/>
<path d="M476.008 79.9075C476.263 79.5931 475.216 70.3742 474.832 69.8648C474.572 69.4778 473.071 69.6866 473.003 70.1674C472.974 70.3735 473.214 72.6489 473.582 75.2575C474.129 79.5726 474.243 80.009 474.964 80.1106C475.41 80.1736 475.876 80.0991 476.008 79.9075Z" fill="#C9C9C9"/>
<path d="M473.309 65.5171C474.378 65.3876 474.359 65.525 473.558 59.528C472.966 55.0315 472.942 54.9579 472.015 55.0725C471.519 55.1077 471.054 55.1821 470.98 55.2068C470.862 55.2953 472.171 65.3918 472.323 65.5533C472.387 65.5974 472.809 65.5867 473.309 65.5171Z" fill="#C9C9C9"/>
<path d="M471.419 50.8555C471.884 50.781 472.262 50.589 472.281 50.4516C472.354 49.9365 471.077 40.8602 470.905 40.5908C470.619 40.1303 469.139 40.4469 469.061 40.9964C468.969 41.6489 470.211 50.4752 470.447 50.7887C470.531 50.9406 470.982 50.9691 471.419 50.8555Z" fill="#C9C9C9"/>
<path d="M469.381 36.2431C470.45 36.1136 470.431 36.251 469.63 30.254C469.039 25.7574 469.014 25.6839 468.087 25.7984C467.592 25.8337 467.126 25.9081 467.052 25.9328C466.935 26.0213 468.243 36.1177 468.395 36.2793C468.459 36.3233 468.881 36.3127 469.381 36.2431Z" fill="#C9C9C9"/>
</svg>
