<svg width="48" height="48" viewBox="0 0 48 48" fill="none" xmlns="http://www.w3.org/2000/svg">
<path d="M24 0C10.746 0 0 10.746 0 24C0 37.254 10.746 48 24 48C37.254 48 48 37.254 48 24C48 10.746 37.254 0 24 0ZM11.166 29.166C10.458 28.53 10 27.586 10 26.52C10 25.456 10.458 24.514 11.166 23.874V29.166ZM13.5 30C13.076 30 12.854 30.006 12.334 29.84V23.204C12.886 23.028 13.148 23.034 13.5 23.062V30ZM15.834 30H14.666V23.39L15.026 23.6C15.186 22.944 15.47 22.344 15.834 21.81V30ZM18.166 30H17V20.588C17.36 20.32 17.746 20.088 18.166 19.928V30ZM20.5 30H19.334V19.666C19.774 19.62 19.906 19.586 20.5 19.676V30ZM22.834 30H21.666V20.026L22.11 20.24C22.318 19.878 22.566 19.548 22.834 19.24V30ZM34.604 30H24V18.192C24.93 17.552 26.032 17.168 27.222 17.168C30.388 17.168 32.954 19.782 33.19 23.092C35.47 21.976 38 23.772 38 26.376C38 28.376 36.478 30 34.604 30Z" fill="white"/>
</svg>
