<svg width="48" height="48" viewBox="0 0 48 48" fill="none" xmlns="http://www.w3.org/2000/svg">
<path fill-rule="evenodd" clip-rule="evenodd" d="M24 0C10.748 0 0 10.744 0 24C0 37.254 10.748 48 24 48C37.254 48 48 37.254 48 24C48 10.744 37.254 0 24 0ZM30.448 35.742C30.824 36.008 31.308 36.074 31.74 35.912C32.17 35.748 32.488 35.378 32.584 34.93C33.598 30.166 36.058 18.106 36.98 13.774C37.05 13.446 36.934 13.106 36.678 12.888C36.42 12.67 36.064 12.608 35.748 12.724C30.856 14.536 15.79 20.188 9.632 22.466C9.242 22.612 8.988 22.986 9 23.4C9.014 23.812 9.292 24.17 9.692 24.29C12.454 25.116 16.078 26.266 16.078 26.266C16.078 26.266 17.772 31.382 18.654 33.982C18.766 34.31 19.022 34.566 19.358 34.654C19.696 34.742 20.054 34.65 20.306 34.412C21.724 33.074 23.916 31.004 23.916 31.004C23.916 31.004 28.084 34.058 30.448 35.742ZM17.602 25.618L19.562 32.08L19.998 27.988C19.998 27.988 27.564 21.162 31.88 17.272C32.006 17.158 32.022 16.966 31.918 16.832C31.814 16.698 31.622 16.666 31.48 16.758C26.48 19.95 17.602 25.618 17.602 25.618Z" fill="white"/>
</svg>
